erDiagram
    %% ===== CONFIGURACION =====
    FormFieldConfig {
    }
    CollectionFieldConfig {
    }
    EntityConfiguration {
        string string PK NOT NULL
    }
    %% ===== FLOTA =====
    Piloto {
        string string NOT NULL
    }
    BusMarca {
        string string NOT NULL
    }
    Enclave {
    }
    Asiento {
    }
    Bus {
        string string NOT NULL
        string int NOT NULL
    }
    %% ===== INFRAESTRUCTURA =====
    Icon {
    }
    %% ===== ORGANIZACION =====
    Nacion {
    }
    Estacion {
    }
    Localidad {
    }
    Empresa {
    }
    Parada {
    }
    %% ===== OTROS =====
    LayoutProfile {
        string bool NOT NULL
    }
    LayoutSchemaItem {
        string int NOT NULL
    }
    VueRoute {
    }
    LayoutSchema {
        string LayoutArea NOT NULL
    }
    LayoutProfileUsuario {
        string int NOT NULL
    }
    LayoutProfileRole {
        string int NOT NULL
    }
    Permiso {
    }
    %% ===== PERSONAL =====
    Usuario {
        string string NOT NULL
    }
    %% ===== SEGURIDAD =====
    Action {
    }
    ApiToken {
        string string NOT NULL
    }
    Role {
    }
    %% ===== TRANSPORTE =====
    Status {
    }
    Salida {
    }
    Factura {
    }
    Cliente {
    }
    Boleto {
    }
    Trayecto {
    }
    Recorrido {
    }
    Venta {
    }
    RecorridoMatrioska {
    }
    %% ===== RELATIONSHIPS =====
    VueRoute ||--o{ Collection : "Collection"
    VueRoute }{o--o{ Collection : "Collection"
    Action }{o--o{ Collection : "Collection"
    Action }{o--o{ Collection : "Collection"
    Salida ||--o{ Collection : "Collection"
    Usuario ||--o{ Collection : "Collection"
    Usuario ||--o{ Collection : "Collection"
    Usuario }{o--o{ Collection : "Collection"
    Usuario }{o--o{ Collection : "Collection"
    FormFieldConfig }|--|| EntityConfiguration : "EntityConfiguration"
    Enclave ||--o{ Collection : "Collection"
    Trayecto ||--o{ Collection : "Collection"
    Trayecto }{o--o{ Collection : "Collection"
    Recorrido ||--o{ Collection : "Collection"
    Venta ||--o{ Collection : "Collection"
    Empresa ||--o{ Collection : "Collection"
    Empresa ||--o{ Collection : "Collection"
    CollectionFieldConfig }|--|| EntityConfiguration : "EntityConfiguration"
    Bus ||--o{ Collection : "Collection"